<svg xmlns="http://www.w3.org/2000/svg" viewBox="0 0 247.82 247.82"><defs><style>.cls-1{fill:#fff;}</style></defs><title>logo-white</title><g id="Layer_2" data-name="Layer 2"><g id="Layer_1-2" data-name="Layer 1"><path class="cls-1" d="M238.08,75.68a124.31,124.31,0,1,0,9.74,48.23A123.43,123.43,0,0,0,238.08,75.68ZM123.91,230.24A106.33,106.33,0,0,1,111,18.37a26.3,26.3,0,0,1,.57,5.9v7.79s.3,8.7-7.19,13.16h0A39.85,39.85,0,0,0,82,80.91h0V81a1.48,1.48,0,0,0,0,.21c0,1,0,1.94.11,2.9L86.39,208.8h0s0,.06,0,.08a3.17,3.17,0,1,0,6.29,0v-.08h0V108.55h4.44V96h8.59l3.15,111.81h0v0c0,2.31,1.23,4.18,2.74,4.18h0c1.51,0,2.74-1.87,2.74-4.18v0h0l3.19-113.41.34-13.84,0-1.74c.37-5.35,2.9-9.49,6-9.49a3.7,3.7,0,0,1,1.87.53l-.3,7.9a4.45,4.45,0,0,1,4.39,1.72l0,1.75.32,13.17,3.2,113.41h0v0c0,2.31,1.23,4.18,2.75,4.18h0c1.51,0,2.74-1.87,2.74-4.18v0h0L141.76,108h4.12l.81-6.59.45,6.36h6.6l1.4,101.05h0s0,.06,0,.08a3.17,3.17,0,1,0,6.29,0v-.08h0l4.26-124.72c.07-1,.11-1.93.11-2.9v-.27h0a39.89,39.89,0,0,0-22.33-35.69h0c-7.49-4.46-7.19-13.16-7.19-13.16V24.27a26.3,26.3,0,0,1,.57-5.9,106.33,106.33,0,0,1-12.94,211.87Z"/></g></g></svg>